<?xml version="1.0" encoding="UTF-8"?> <svg xmlns="http://www.w3.org/2000/svg" width="155" height="50" viewBox="0 0 155 50" fill="none"><path d="M47.3933 37.9936C45.0236 37.9936 44.4707 36.5718 44.4707 35.15V29.8578H45.7345V35.0711C45.7345 36.1769 46.0505 36.9668 47.4723 36.9668C48.7361 36.9668 49.289 36.4139 49.289 34.9131V29.8578H50.4739V34.7551C50.4739 36.8878 49.368 37.9936 47.3933 37.9936Z" fill="#1D1D1B"></path><path d="M56.003 37.8356V34.2811C56.003 33.5702 55.845 33.1753 55.2131 33.1753C54.4232 33.1753 53.7913 34.0442 53.7913 35.15V37.7567H52.6064V32.2274H53.7123C53.7123 32.6224 53.7123 32.9383 53.6333 33.3333C53.9493 32.6224 54.7392 32.1484 55.529 32.1484C56.7929 32.1484 57.1878 32.9383 57.1878 33.8862V37.6777L56.003 37.8356Z" fill="#1D1D1B"></path><path d="M59.7944 31.5955C59.3994 31.5955 59.0835 31.2795 59.0835 30.8846C59.0835 30.4896 59.3205 30.1737 59.7154 30.1737H59.7944C60.1893 30.0947 60.5843 30.4107 60.6633 30.8056C60.7423 31.2005 60.4263 31.5955 60.0314 31.6745H59.9524H59.7944V31.5955ZM59.1625 37.9146V32.3854H60.3473V37.9146H59.1625Z" fill="#1D1D1B"></path><path d="M64.929 37.8357H63.7441L61.6904 32.3065H62.9543L63.9811 35.2291C64.1391 35.6241 64.2181 36.019 64.2971 36.335C64.3761 36.019 64.455 35.6241 64.613 35.2291L65.6399 32.3065H66.9037L64.929 37.8357Z" fill="#1D1D1B"></path><path d="M72.5113 35.229H69.0358C69.0358 36.4928 69.5887 37.0457 70.6156 37.0457C71.1685 37.0457 71.7214 36.8878 72.1954 36.7298L72.2743 37.6776C71.6424 37.9146 71.0105 38.0726 70.3786 37.9936C68.6408 37.9936 67.772 37.1247 67.772 35.15C67.772 33.4912 68.6408 32.2274 70.2996 32.2274C71.9584 32.2274 72.5113 33.2543 72.5113 34.5971C72.5113 34.8341 72.5113 34.992 72.5113 35.229ZM70.2206 33.1753C69.5887 33.1753 69.0358 33.7282 68.9568 34.4391H71.2475C71.3265 33.8862 70.9315 33.3333 70.3786 33.2543L70.2206 33.1753Z" fill="#1D1D1B"></path><path d="M77.014 33.4122C75.9082 33.2542 75.3552 33.9651 75.3552 35.6239V37.8356H74.1704V32.3063H75.2763C75.2763 32.7013 75.1973 33.0962 75.1973 33.4912C75.3552 32.6223 76.1451 32.0694 77.014 32.1484V33.4122Z" fill="#1D1D1B"></path><path d="M79.3043 37.9937C78.9094 37.9937 78.5145 37.9937 78.1195 37.9147V36.8879C78.5145 36.9669 78.9094 37.0459 79.3043 37.0459C79.9363 37.0459 80.4102 36.8089 80.4102 36.335C80.4102 35.2291 78.0405 35.861 78.0405 33.9653C78.0405 33.0174 78.8304 32.3065 80.2522 32.3065C80.5682 32.3065 80.9631 32.3065 81.2791 32.3855V33.3334C80.9631 33.2544 80.5682 33.1754 80.1732 33.1754C79.5413 33.1754 79.2254 33.4124 79.2254 33.8863C79.2254 34.9132 81.674 34.4392 81.674 36.256C81.674 37.2038 80.8051 37.9937 79.3043 37.9937Z" fill="#1D1D1B"></path><path d="M83.9648 31.5955C83.5699 31.5955 83.2539 31.2795 83.2539 30.8846C83.2539 30.4896 83.4909 30.1737 83.8858 30.1737H83.9648C84.3598 30.0947 84.7547 30.4107 84.8337 30.8056C84.9127 31.2005 84.5967 31.5955 84.2018 31.6745H84.1228H83.9648V31.5955ZM83.4119 37.9146V32.3854H84.5967V37.9146H83.4119Z" fill="#1D1D1B"></path><path d="M88.5462 37.9936C87.3614 37.9936 87.0454 37.5196 87.0454 36.3348V33.4122H86.0186V32.5433H87.0454V30.8056L88.2302 30.4896V32.5433H89.6521V33.4122H88.1513V35.9399C88.1513 36.7298 88.3092 36.9667 88.8622 36.9667C89.0991 36.9667 89.3361 36.9667 89.5731 36.8877V37.8356C89.3361 37.9146 88.9412 37.9936 88.5462 37.9936Z" fill="#1D1D1B"></path><path d="M94.155 37.8356C94.155 37.5197 94.155 37.1247 94.234 36.8088C93.9181 37.5197 93.2072 37.9936 92.4173 37.9146C91.7064 37.9936 90.9955 37.4407 90.9165 36.7298C90.9165 36.6508 90.9165 36.5718 90.9165 36.4928C90.9165 35.229 92.1803 34.5181 94.155 34.5181V34.2022C94.155 33.4913 93.8391 33.1753 93.0492 33.1753C92.4963 33.1753 91.9434 33.3333 91.4694 33.6492L91.3904 32.6224C92.0223 32.3854 92.6543 32.2274 93.2862 32.2274C94.9449 32.2274 95.4189 32.9383 95.4189 34.0442V36.2559C95.4189 36.7298 95.4189 37.2827 95.4189 37.7567L94.155 37.8356ZM92.1803 31.3585C91.7854 31.3585 91.5484 31.0426 91.5484 30.7266C91.5484 30.3317 91.8644 30.0947 92.1803 30.0947C92.5753 30.0947 92.8122 30.4107 92.8122 30.7266C92.8122 31.0426 92.5753 31.3585 92.1803 31.3585ZM94.155 35.387C92.4173 35.387 92.0223 35.9399 92.0223 36.4138C92.0223 36.8088 92.3383 37.0458 92.6543 37.0458H92.7332C93.5231 36.9668 94.1551 36.2559 94.0761 35.466L94.155 35.387ZM94.392 31.3585C93.9971 31.3585 93.7601 31.0426 93.7601 30.7266C93.7601 30.3317 94.0761 30.0947 94.392 30.0947C94.787 30.0947 95.0239 30.3317 95.0239 30.7266C95.0239 31.0426 94.708 31.3585 94.392 31.3585Z" fill="#1D1D1B"></path><path d="M99.1307 37.9936C97.9458 37.9936 97.6299 37.5196 97.6299 36.3348V33.4122H96.603V32.5433H97.6299V30.8056L98.8147 30.4896V32.5433H100.237V33.4122H98.8147V35.9399C98.8147 36.7298 98.9727 36.9667 99.5256 36.9667C99.7626 36.9667 99.9995 36.9667 100.237 36.8877V37.8356C99.8416 37.9146 99.5256 37.9936 99.1307 37.9936Z" fill="#1D1D1B"></path><path d="M111.296 37.8357V34.2022H107.662V37.8357H106.398V29.7788H107.662V33.0963H111.296V29.7788H112.56V37.8357H111.296Z" fill="#1D1D1B"></path><path d="M118.009 37.8356C118.009 37.5197 118.009 37.1247 118.088 36.8088C117.772 37.5197 117.061 37.9936 116.271 37.9146C115.56 37.9936 114.849 37.4407 114.771 36.7298C114.771 36.6508 114.771 36.5718 114.771 36.4928C114.771 35.229 116.034 34.5181 118.009 34.5181V34.2021C118.009 33.4912 117.693 33.1753 116.903 33.1753C116.35 33.1753 115.797 33.3333 115.244 33.6492L115.165 32.6224C115.797 32.3854 116.429 32.2274 117.061 32.2274C118.72 32.2274 119.194 32.9383 119.194 34.0442V36.2559C119.194 36.7298 119.194 37.2827 119.194 37.7566L118.009 37.8356ZM117.93 35.387C116.192 35.387 115.876 35.9399 115.876 36.4138C115.876 36.8088 116.192 37.0457 116.508 37.0457H116.587C117.377 36.9668 118.009 36.2559 117.93 35.466V35.387Z" fill="#1D1D1B"></path><path d="M127.962 37.8356V34.3601C127.962 33.6492 127.804 33.2542 127.172 33.2542C126.54 33.2542 125.75 34.0441 125.75 35.2289V37.8356H124.565V34.3601C124.565 33.7282 124.407 33.2542 123.776 33.2542C123.144 33.2542 122.354 34.1231 122.354 35.2289V37.8356H121.169V32.3853H122.275C122.275 32.7803 122.275 33.0962 122.196 33.4912C122.512 32.7803 123.223 32.3064 124.013 32.3064C124.723 32.2274 125.434 32.7803 125.513 33.4912C125.829 32.7803 126.54 32.3064 127.33 32.3064C128.357 32.3064 128.989 32.8593 128.989 34.1231V37.9146L127.962 37.8356Z" fill="#1D1D1B"></path><path d="M133.175 37.9936C132.543 37.9936 131.832 37.9147 131.2 37.7567V29.8578H132.385V32.3854C132.385 32.7014 132.385 33.0963 132.306 33.4123C132.622 32.7014 133.254 32.3064 134.044 32.3064C135.308 32.3064 136.098 33.2543 136.098 34.9131C136.019 36.7298 134.992 37.9936 133.175 37.9936ZM133.728 33.2543C132.859 33.2543 132.385 34.2812 132.385 35.229V36.8878C132.701 36.9668 132.938 37.0458 133.254 36.9668C134.202 36.9668 134.834 36.4139 134.834 34.9131C134.834 33.8862 134.439 33.2543 133.728 33.2543Z" fill="#1D1D1B"></path><path d="M141.39 37.8356C141.39 37.4407 141.39 37.1247 141.469 36.7298C141.153 37.4407 140.363 37.9146 139.573 37.9146C138.309 37.9146 137.915 37.1247 137.915 36.1768V32.3854H139.099V35.9399C139.099 36.6508 139.257 37.0457 139.889 37.0457C140.679 37.0457 141.311 36.1768 141.311 35.071V32.3854H142.496V37.9146L141.39 37.8356Z" fill="#1D1D1B"></path><path d="M147.63 33.4122C146.524 33.2542 145.971 33.9651 145.971 35.6239V37.8356H144.786V32.3063H145.892C145.892 32.7013 145.892 33.0962 145.813 33.4912C145.971 32.6223 146.761 32.0694 147.63 32.1484V33.4122Z" fill="#1D1D1B"></path><path d="M151.343 40.6793C149.921 40.6793 148.973 40.1264 148.973 39.0996C148.973 38.5466 149.289 37.9937 149.842 37.6778C149.526 37.5198 149.289 37.2038 149.289 36.8879C149.289 36.4929 149.526 36.098 149.921 35.94C149.368 35.6241 149.052 34.9921 149.131 34.4392C149.131 33.2544 150 32.3065 151.58 32.3065C151.896 32.3065 152.212 32.3065 152.449 32.3855H154.265V33.3334H153.397C153.633 33.5703 153.791 33.8863 153.791 34.2812C153.791 35.4661 153.002 36.335 151.422 36.335C151.185 36.335 151.027 36.335 150.79 36.256C150.632 36.335 150.474 36.4929 150.474 36.6509C150.474 36.8879 150.711 37.0459 151.343 37.0459H152.291C153.476 37.0459 154.186 37.5988 154.186 38.6256C154.265 39.7315 153.081 40.6793 151.343 40.6793ZM152.133 37.9937H150.79C150.474 38.1517 150.237 38.5466 150.158 38.9416C150.158 39.4945 150.711 39.8895 151.501 39.8895C152.528 39.8895 153.081 39.4155 153.081 38.8626C153.081 38.3097 152.765 37.9937 152.133 37.9937ZM151.58 33.1754C150.948 33.0964 150.395 33.5703 150.316 34.1233C150.316 34.2022 150.316 34.2023 150.316 34.2812C150.316 34.9921 150.79 35.3871 151.58 35.3871C152.37 35.3871 152.844 34.9921 152.844 34.2812C152.923 33.6493 152.449 33.1754 151.817 33.0964L151.58 33.1754Z" fill="#1D1D1B"></path><path d="M0.158203 0H37.9149V37.7567H0.158203V0Z" fill="#565656"></path><path d="M24.4077 22.3538H24.9606L24.7237 21.8799L24.9606 21.4059H24.4077L24.1707 21.011L23.8548 21.4059H23.3809L23.6178 21.8799L23.3809 22.3538H23.8548L24.1707 22.8277L24.4077 22.3538Z" fill="white"></path><path d="M32.8588 22.3538H33.4117L33.0957 21.8799L33.4117 21.4059H32.8588L32.6218 21.011L32.3059 21.4059H31.7529L32.0689 21.8799L31.7529 22.3538H32.3059L32.6218 22.8277L32.8588 22.3538Z" fill="white"></path><path d="M26.8554 22.5907V22.6697H26.2235V23.3806H26.8554V27.725H25.2757V23.4596H22.906V27.646H22.0371V28.3569H34.6753V27.646H33.8854V23.4596H31.3578V27.646H29.778V23.3016H30.4099V22.6697H29.778C29.857 21.9588 29.3041 21.2479 28.5932 21.0899V20.379H29.2251V19.8261H28.6722V19.1942H28.0403V19.8261H27.4873V20.379H28.0403V21.1689C27.4084 21.3269 26.8554 21.9588 26.8554 22.5907Z" fill="white"></path><path d="M28.3572 31.3585C27.4093 31.3585 26.6984 32.1484 26.6984 33.0173V35.8609H21.3271C22.117 33.7282 22.67 31.4375 22.8279 29.1469H33.9654C34.1234 31.4375 34.5973 33.7282 35.4662 35.8609H30.1739V33.0173C30.0949 32.0694 29.305 31.3585 28.3572 31.3585Z" fill="white"></path><path d="M16.5874 12.3222H15.0866V8.05678H10.6632V9.00465C10.6632 11.1374 9.39942 12.4012 6.95076 12.4012C4.5021 12.4012 3.23828 11.2163 3.23828 9.00465V2.76453H4.73907V8.6887C4.73907 10.1895 5.29199 11.1374 6.95076 11.1374C8.60953 11.1374 9.16245 10.2685 9.16245 8.6887V2.76453H10.6632V6.71397H15.0866V2.76453H16.5874V6.71397H21.0898V2.76453H22.5906V12.2432H21.0898V7.97779H16.5874V12.3222Z" fill="white"></path><path d="M1.34281 49.526C0.868879 49.526 0.394945 49.526 0 49.526V44.7076C0.394945 44.7076 0.947867 44.7076 1.57978 44.7076C3.08057 44.7076 4.02843 45.3396 4.02843 47.0773C4.02843 48.8151 2.92259 49.526 1.34281 49.526ZM1.50079 45.4185C1.34281 45.4185 1.10585 45.4185 0.947868 45.4185V48.6571C1.10585 48.6571 1.26382 48.6571 1.4218 48.6571C2.21169 48.7361 2.92259 48.1042 3.00158 47.3143C3.00158 47.2353 3.00158 47.0773 3.00158 46.9983C3.00158 45.9715 2.60664 45.3396 1.50079 45.4185Z" fill="#1D1D1B"></path><path d="M4.81836 49.447V44.6287H7.425V45.4186H5.76623V46.6034H7.34601V47.3143H5.76623V48.5781H7.425V49.368L4.81836 49.447Z" fill="#1D1D1B"></path><path d="M10.6637 49.447L9.32091 47.4723V49.447H8.37305V44.6287C8.76799 44.6287 9.16294 44.6287 9.79485 44.6287C10.8217 44.6287 11.5326 45.0236 11.5326 45.9715C11.5326 46.6824 10.9797 47.2353 10.3478 47.3143L10.7427 47.8672L11.9275 49.447H10.6637ZM9.71586 45.3396C9.55788 45.3396 9.47889 45.3396 9.32091 45.3396V46.7614H9.63687C10.1898 46.7614 10.5057 46.4454 10.5057 46.0505C10.5057 45.6555 10.2688 45.3396 9.71586 45.3396Z" fill="#1D1D1B"></path><path d="M16.1139 45.4185V46.6824H17.6937V47.4722H16.1139V49.526H15.166V44.7866H17.6937V45.5765L16.1139 45.4185Z" fill="#1D1D1B"></path><path d="M20.4585 49.526C19.0367 49.526 18.2468 48.5781 18.2468 47.0773C18.1678 45.7345 19.1157 44.6287 20.4585 44.5497C20.5375 44.5497 20.5375 44.5497 20.6164 44.5497C21.8803 44.5497 22.8281 45.3396 22.8281 46.9194C22.9861 48.1832 22.0383 49.289 20.8534 49.447C20.6954 49.526 20.6165 49.526 20.4585 49.526ZM20.5375 45.4186C19.9055 45.4186 19.2736 45.9715 19.2736 46.9983C19.2736 48.0252 19.6686 48.6571 20.5375 48.6571C21.1694 48.6571 21.8013 48.1832 21.8013 46.9983C21.8013 45.8135 21.4063 45.4186 20.5375 45.4186Z" fill="#1D1D1B"></path><path d="M25.908 49.447L24.5652 47.4723H24.4862V49.447H23.6963V44.7076C24.0912 44.7076 24.4862 44.7076 25.0391 44.7076C26.066 44.7076 26.7769 45.1026 26.7769 46.0505C26.7769 46.7614 26.2239 47.3143 25.592 47.3933L25.987 47.9462L27.1718 49.526L25.908 49.447ZM24.9601 45.3396H24.5652V46.7614H24.8811C25.434 46.7614 25.75 46.4454 25.75 46.0505C25.75 45.6555 25.513 45.3396 24.9601 45.3396Z" fill="#1D1D1B"></path><path d="M28.6724 49.526C28.3564 49.526 28.0405 49.447 27.7245 49.447L27.8035 48.5781C28.1194 48.6571 28.4354 48.7361 28.8303 48.7361C29.3043 48.7361 29.6202 48.5781 29.6202 48.1042C29.6202 47.2353 27.6455 47.6302 27.6455 46.0505C27.6455 45.1816 28.2774 44.6287 29.4623 44.6287C29.7782 44.6287 30.0152 44.6287 30.3311 44.7076L30.2521 45.4975C29.9362 45.4186 29.6992 45.3396 29.3833 45.3396C28.8303 45.3396 28.5934 45.5765 28.5934 45.8925C28.5934 46.7614 30.5681 46.4454 30.5681 47.9462C30.5681 48.8151 29.8572 49.526 28.6724 49.526Z" fill="#1D1D1B"></path><path d="M33.4119 49.526C32.306 49.605 31.2792 48.8151 31.2002 47.7092C31.2002 47.5513 31.2002 47.3933 31.2002 47.2353C31.2002 45.7345 31.9901 44.6287 33.5699 44.6287C33.8858 44.6287 34.2808 44.7076 34.5967 44.7866L34.5177 45.5765C34.2018 45.4975 33.8858 45.4186 33.5699 45.4186C32.701 45.4186 32.2271 46.0505 32.2271 46.9983C32.2271 47.9462 32.622 48.6571 33.6489 48.6571C33.9648 48.6571 34.2808 48.5781 34.5967 48.4991L34.6757 49.368C34.2808 49.368 33.8068 49.447 33.4119 49.526Z" fill="#1D1D1B"></path><path d="M38.5465 49.447V47.3933H36.4928V49.447H35.5449V44.7076H36.4928V46.6034H38.5465V44.7076H39.4944V49.447H38.5465Z" fill="#1D1D1B"></path><path d="M42.4955 49.526C40.9947 49.526 40.6787 48.7361 40.6787 47.7882V44.7076H41.6266V47.7882C41.6266 48.4201 41.7846 48.8151 42.5744 48.8151C43.3643 48.8151 43.6013 48.4991 43.6013 47.7092V44.7076H44.5492V47.6302C44.7071 48.5781 43.9962 49.447 43.0484 49.605C42.8904 49.526 42.7324 49.526 42.4955 49.526Z" fill="#1D1D1B"></path><path d="M48.499 49.447L47.0772 46.9983C46.9192 46.6824 46.6822 46.2874 46.5243 45.9715C46.5243 46.3664 46.6033 47.1563 46.6033 47.7092V49.447H45.7344V44.7076H46.9192L48.262 46.9983C48.499 47.3933 48.657 47.7882 48.8149 48.1042C48.8149 47.6302 48.736 46.7614 48.736 46.2084V44.7076H49.6048V49.447H48.499Z" fill="#1D1D1B"></path><path d="M54.4232 45.6555C54.0282 45.4976 53.5543 45.4186 53.1593 45.4186C52.2905 45.4186 51.5796 46.0505 51.5006 46.8404C51.5006 46.9194 51.5006 46.9983 51.5006 47.0773C51.4216 47.8672 51.9745 48.5781 52.7644 48.6571C52.8434 48.6571 52.9224 48.6571 53.0014 48.6571C53.2383 48.6571 53.3963 48.6571 53.6333 48.5781V46.9194H54.5811V49.21C54.0282 49.447 53.4753 49.526 52.9224 49.526C51.7375 49.684 50.6317 48.8151 50.4737 47.5513C50.4737 47.3933 50.4737 47.2353 50.4737 47.1563C50.3947 45.8135 51.5006 44.6287 52.9224 44.5497C53.0014 44.5497 53.0803 44.5497 53.1593 44.5497C53.6333 44.5497 54.1072 44.6287 54.5021 44.7866L54.4232 45.6555Z" fill="#1D1D1B"></path><path d="M59.7944 50.0001V44.4708H60.4263V50.0001H59.7944Z" fill="#1D1D1B"></path><path d="M66.9825 49.526C66.5085 49.526 66.0346 49.526 65.6396 49.526V44.7866C66.0346 44.7866 66.5875 44.7866 67.2194 44.7866C68.7202 44.7866 69.6681 45.4185 69.6681 47.1563C69.6681 48.894 68.4833 49.526 66.9825 49.526ZM67.1404 45.4185C66.9035 45.4185 66.7455 45.4185 66.5875 45.4185V48.6571C66.7455 48.6571 66.9035 48.6571 67.0615 48.7361C67.8513 48.8151 68.5622 48.2621 68.6412 47.3933C68.6412 47.3143 68.6412 47.1563 68.6412 47.0773C68.5622 45.9715 68.1673 45.4185 67.1404 45.4185Z" fill="#1D1D1B"></path><path d="M70.3789 49.447V44.7076H72.9855V45.4975H71.3268V46.6824H72.9066V47.4723H71.3268V48.7361H72.9855V49.526L70.3789 49.447Z" fill="#1D1D1B"></path><path d="M76.3034 49.447L74.9606 47.4723V49.447H74.0127V44.7076C74.4076 44.7076 74.8026 44.7076 75.3555 44.7076C76.3824 44.7076 77.0933 45.1026 77.0933 46.0505C77.0933 46.7614 76.5403 47.3143 75.9084 47.3933L76.3034 47.9462L77.4882 49.526L76.3034 49.447ZM75.2765 45.3396C75.1185 45.3396 75.0396 45.3396 74.8816 45.3396V46.7614H75.1975C75.7505 46.7614 76.0664 46.4454 76.0664 46.0505C76.0664 45.6555 75.8294 45.3396 75.2765 45.3396Z" fill="#1D1D1B"></path><path d="M80.7266 49.447V44.7076H81.6744V48.6571H83.2542V49.447H80.7266Z" fill="#1D1D1B"></path><path d="M83.8862 49.447V44.7076H86.4929V45.4975H84.8341V46.6824H86.4139V47.4723H84.8341V48.7361H86.4929V49.526L83.8862 49.447Z" fill="#1D1D1B"></path><path d="M90.4425 49.447V47.3933H88.3888V49.447H87.4409V44.7076H88.3888V46.6034H90.4425V44.7076H91.3904V49.447H90.4425Z" fill="#1D1D1B"></path><path d="M94.8659 49.447L93.5231 47.4723V49.447H92.5752V44.7076C92.9701 44.7076 93.3651 44.7076 93.918 44.7076C94.9449 44.7076 95.6558 45.1026 95.6558 46.0505C95.6558 46.7614 95.1028 47.3143 94.4709 47.3933L94.8659 47.9462L96.0507 49.526L94.8659 49.447ZM93.839 45.3396C93.681 45.3396 93.6021 45.3396 93.4441 45.3396V46.7614H93.76C94.313 46.7614 94.6289 46.4454 94.6289 46.0505C94.6289 45.6555 94.4709 45.3396 93.839 45.3396Z" fill="#1D1D1B"></path><path d="M96.7612 49.447V44.7076H99.3679V45.4975H97.7091V46.6824H99.2889V47.4723H97.7091V48.7361H99.3679V49.526L96.7612 49.447Z" fill="#1D1D1B"></path><path d="M104.502 50.0001V44.4708H105.134V50.0001H104.502Z" fill="#1D1D1B"></path><path d="M111.532 49.526C111.058 49.526 110.584 49.526 110.189 49.526V44.7866C110.584 44.7866 111.137 44.7866 111.769 44.7866C113.27 44.7866 114.218 45.4185 114.218 47.1563C114.218 48.894 113.112 49.526 111.532 49.526ZM111.69 45.4185C111.453 45.4185 111.295 45.4185 111.137 45.4185V48.6571C111.295 48.6571 111.453 48.6571 111.611 48.7361C112.401 48.8151 113.112 48.2621 113.191 47.3933C113.191 47.3143 113.191 47.1563 113.191 47.0773C113.191 45.9715 112.796 45.4185 111.69 45.4185Z" fill="#1D1D1B"></path><path d="M115.008 49.447V44.7076H117.614V45.4975H115.877V46.6824H117.456V47.4723H115.877V48.7361H117.535V49.526L115.008 49.447Z" fill="#1D1D1B"></path><path d="M120.853 49.447L119.51 47.4723V49.447H118.562V44.7076C118.957 44.7076 119.352 44.7076 119.905 44.7076C120.932 44.7076 121.643 45.1026 121.643 46.0505C121.643 46.7614 121.09 47.3143 120.379 47.3933L120.774 47.9462L121.88 49.526L120.853 49.447ZM119.826 45.3396C119.668 45.3396 119.589 45.3396 119.431 45.3396V46.7614H119.826C120.379 46.7614 120.695 46.4454 120.695 46.0505C120.695 45.6555 120.379 45.3396 119.826 45.3396Z" fill="#1D1D1B"></path><path d="M126.698 49.447H125.355V44.6287C125.75 44.6287 126.382 44.6287 126.935 44.6287C127.962 44.6287 128.515 45.0236 128.515 45.8135C128.515 46.2874 128.199 46.6824 127.725 46.8404C128.199 46.9193 128.594 47.3933 128.594 47.9462C128.594 48.6571 128.12 49.447 126.698 49.447ZM126.777 45.3396H126.224V46.6034H126.619C127.251 46.6034 127.567 46.3664 127.567 45.8925C127.567 45.4186 127.33 45.3396 126.777 45.3396ZM126.619 47.3143H126.224V48.7361C126.382 48.7361 126.54 48.7361 126.698 48.7361C127.33 48.7361 127.567 48.4201 127.567 48.0252C127.567 47.6302 127.251 47.3143 126.619 47.3143Z" fill="#1D1D1B"></path><path d="M129.621 49.447V44.7076H130.568V49.447H129.621Z" fill="#1D1D1B"></path><path d="M131.753 49.447V44.7076H132.701V48.6571H134.281V49.447H131.753Z" fill="#1D1D1B"></path><path d="M136.255 49.526C135.781 49.526 135.308 49.526 134.913 49.526V44.7866C135.308 44.7866 135.86 44.7866 136.413 44.7866C137.914 44.7866 138.862 45.4185 138.862 47.1563C138.862 48.894 137.756 49.526 136.255 49.526ZM136.334 45.4185C136.097 45.4185 135.939 45.4185 135.781 45.4185V48.6571C135.939 48.6571 136.097 48.6571 136.255 48.7361C137.045 48.8151 137.756 48.2621 137.835 47.3933C137.835 47.3143 137.835 47.1563 137.835 47.0773C137.914 46.0504 137.44 45.4185 136.334 45.4185Z" fill="#1D1D1B"></path><path d="M141.548 49.526C140.047 49.526 139.731 48.7361 139.731 47.7882V44.7076H140.679V47.7882C140.679 48.4201 140.837 48.8151 141.706 48.8151C142.575 48.8151 142.733 48.4991 142.733 47.7092V44.7076H143.602V47.6302C143.681 48.5781 143.049 49.447 142.101 49.605C141.864 49.526 141.706 49.526 141.548 49.526Z" fill="#1D1D1B"></path><path d="M147.473 49.447L146.051 46.9983C145.893 46.6824 145.656 46.2874 145.577 45.9715C145.577 46.3664 145.577 47.1563 145.577 47.7092V49.447H144.708V44.7076H145.972L147.315 46.9983C147.552 47.3933 147.71 47.7882 147.868 48.1042C147.868 47.6302 147.789 46.7614 147.789 46.2084V44.7076H148.657V49.447H147.473Z" fill="#1D1D1B"></path><path d="M153.397 45.6555C153.002 45.4976 152.528 45.4186 152.133 45.4186C151.264 45.3396 150.553 45.9715 150.553 46.8404C150.553 46.9194 150.553 46.9983 150.553 47.0773C150.474 47.8672 151.027 48.5781 151.817 48.6571C151.896 48.6571 151.975 48.6571 152.054 48.6571C152.291 48.6571 152.449 48.6571 152.686 48.5781V46.9194H153.633V49.21C153.081 49.447 152.528 49.526 151.975 49.526C150.79 49.684 149.684 48.7361 149.605 47.5513C149.605 47.3933 149.605 47.3143 149.605 47.1563C149.526 45.8135 150.632 44.6287 152.054 44.5497C152.133 44.5497 152.212 44.5497 152.291 44.5497C152.765 44.5497 153.239 44.6287 153.633 44.7866L153.397 45.6555Z" fill="#1D1D1B"></path></svg> 