<?xml version="1.0" encoding="UTF-8"?> <svg xmlns="http://www.w3.org/2000/svg" id="Ebene_1" version="1.1" viewBox="0 0 256 256"><!-- Generator: Adobe Illustrator 29.8.1, SVG Export Plug-In . SVG Version: 2.1.1 Build 2) --><defs><style> .st0 { fill: #fff; } .st1 { fill: #901030; } </style></defs><path class="st1" d="M128.01,243.86c64,0,115.85-51.87,115.85-115.85S191.99,12.14,128.01,12.14,12.14,64.01,12.14,127.99s51.87,115.85,115.85,115.85"></path><path class="st0" d="M39.3,130.9c1.11,2.71,1.13,5.32.98,7.96-.33,5.05-.8,10.08-.91,15.13-.07,2.45.56,4.92.76,7.36.07.69,0,1.65-.4,2.05-1.29,1.27-2.6,1.05-3.14-.69-.71-2.29-1.49-4.72-1.47-7.07,0-5.81.44-11.61.67-17.42.07-1.74,0-3.49-.09-5.23-.07-.98-.04-1.74,1.2-1.82.8-.07,1.6-.2,2.45-.29"></path><path class="st0" d="M219.04,165.14c-.11,1.29-.47,1.78-1.74,1.82-1.82.07-3.65.24-5.47.38-.11-.4-.2-.6-.22-.8-.44-3.47-.44-7.05-1.45-10.34-1.11-3.71-1.05-7.41-1.27-11.14-.09-1.47-.18-2.74,1-4.14,1-1.2.18-2.83-1.02-3.4,1.09-2.87,2.07-5.43,3.18-8.32.98,2.11,1.85,3.98,2.74,5.87.02.04.02.11.07.16,2.6,3.92,2.4,8.43,2.89,12.84.65,5.69,1.74,11.34,1.27,17.13M226.4,167.32c-.42-.31-.51-.42-.62-.42-.6-.02-1.22-.04-1.82-.07-.8,0-1.47-.18-1.38-1.22.42-4.58-.11-9.01-1.49-13.44-.82-2.6-.78-5.49-.98-8.27-.04-.6.42-1.36.87-1.85.78-.89,1.02-1.65.44-2.83-1.36-2.76-2.49-5.61-3.76-8.39-1.49-3.29-1.98-7.05-4.67-9.81-.16.02-.31.04-.47.09s-.4.09-.44.2c-1.22,2.49-2.85,1.2-4.45.51-4.54-1.96-9.32-2.58-14.19-2.45-.85.02-1.71,1.27-2.4,2.07-.11.13.56.93.87,1.42.22,0,.44,0,.67-.04-.51,1.25-.93,2.54-1.53,3.76-.65,1.31-.49,2.42.62,2.54,1.05.11,2.2-.04,3.23-.36,1.74-.53,1.85-2.2,2.14-3.65.2-1,.56-1.56,1.67-1.25,3.25.93,6.52,1.85,9.74,2.87.31.09.62.98.53,1.38-.58,2.34-1.31,4.6-1.94,6.92-.29,1.05-.78,1.4-1.82.89-1.07-.51-2.16-.93-3.25-1.36-4.07-1.53-8.3-2.76-12.17-4.67-5.38-2.67-10.81-5.01-16.73-6.12-2.07-.4-4.09-.78-5.83.91-.4.38-.76.8-1.11,1.2.51.38.98.85,1.53,1.09s1.2.2,1.8.38c2.62.73,5.29,1.36,7.83,2.31,5.74,2.18,11.39,4.52,17.06,6.83,3.31,1.33,6.56,2.78,9.85,4.16,1,.42,1.51,1.09,1.62,2.27.4,4.87.96,9.74,1.33,14.61.22,2.94.22,5.89.36,8.85.04,1.11-.44,1.56-1.58,1.67-4.05.36-8.1.82-12.17,1.18-6.27.53-12.57,1-18.84,1.51-4.87.4-9.74.85-14.75,1.27-.13-.82-.29-1.51-.33-2.22-.33-3.92-.85-7.85-.93-11.77-.18-7.01-.16-14.04-.04-21.07.02-1.4.69-2.87,1.31-4.18.85-1.69,1.94-3.25,2.96-4.87.44-.71.98-1.38,1.71-2.42-.22-.33-.62-1.2-1.27-1.76-2.36-2.02-4.83-3.94-7.21-5.96-.38-.31-.71-.91-.69-1.38.09-2.4-.98-4.18-2.6-5.89-3.16-3.36-6.38-6.74-9.16-10.41-6.3-8.25-12.3-16.71-18.51-25.03-5.76-7.72-11.63-15.39-17.48-23.07-.91-1.18-1.82-2.42-2.96-3.38-2.05-1.69-4.27-3.16-6.43-4.76-.82-.62-1.6-1.76-2.45-1.78-1-.04-2.05.85-3.09,1.31-.69.47-1.49.76-2.29.98-.47.13-1.05.38-1.4.2-1.22-.58-1.56.22-1.96,1.07-.65,1.36-1.16,2.78-1.98,4-3.34,5.03-6.81,9.94-10.12,14.97-2.69,4.09-5.09,8.41-7.87,12.43-8.27,11.99-16.64,23.89-25,35.79-2.98,4.23-6.09,8.39-9.21,12.52-.91,1.22-1.96,2.34-3.09,3.69.58.18.96.44,1.11.36,1.85-1.2,3.92-2.18,5.41-3.71,2.51-2.58,4.72-5.47,6.94-8.34,7.03-9.08,12.66-19.13,20.44-27.67,3.92-4.32,7.18-9.25,10.5-14.08,3-4.36,5.65-8.94,8.52-13.41,2.47-3.85,5.03-7.65,7.52-11.48.89-1.38,1.71-2.83,2.56-4.23.24-.2.49-.42.73-.65.29.67.49,1.4.89,1.98,7.56,10.72,15.13,21.42,22.76,32.1,2.78,3.89,6.07,7.45,8.59,11.52,5.52,8.9,12.32,16.79,19.31,24.51,4.14,4.56,8.94,8.36,14.64,11.17-.71,1.36-1.31,2.6-2.02,3.8-.2.33-.69.73-1,.69-1.58-.18-1.65.96-2.11,2-.85,1.89-.07,3.69-.09,5.54-.04,7.63-.24,15.28-.04,22.91.11,4.09.98,8.16,1.4,12.23.13,1.22.62,2.29,1.71,2.18.96-.11,2.16-.96,2.58-1.82.44-.85.78-1.18,1.65-1.2,5.38-.07,10.79-.09,16.17-.29,4.49-.18,9.01-.53,13.5-.91,4.83-.4,9.65-.96,14.48-1.38.42-.04.96.42,1.36.76.73.6,1.38,1.69,2.16,1.8,1.16.16,1.33-1.05,1.62-2.07.24-.8,1.02-1.87,1.76-2.05,1.91-.49,3.94-.53,5.96-.76.36,1.49.78,2.74,2.74,1.98-.4-3.27,2.4-2.74,4.58-3.2"></path><path class="st0" d="M185.91,92.95c7.56,4.98,12.12,12.59,17.6,19.35.67.82,1.29,1.69,2.07,2.4,1,.91.91,2.07.27,2.83-.67.76-1.78.78-2.89.16-3.18-1.78-5.12-4.72-7.3-7.47-2.71-3.4-5.45-6.76-8.21-10.14-.96-1.16-1.91-1.89-3.71-1.45-.85.2-2.09-.91-3.05-1.6-3.69-2.67-7.21-5.61-11.01-8.1-6.94-4.52-14.06-8.79-21.11-13.15-2.85-1.76-5.78-3.36-8.56-5.23-4.58-3.07-8.99-6.38-13.59-9.45-2.31-1.53-4.76-2.94-7.27-4.09-3.74-1.69-6.1-4.85-8.94-7.47.09-.13.18-.29.27-.42,1.09.42,2.25.76,3.27,1.31,7.1,3.85,14.24,7.65,21.22,11.68,2.69,1.53,5.03,3.71,7.65,5.41,4.4,2.83,8.9,5.49,13.39,8.16,6.74,4.03,13.55,7.92,20.24,12.01,2.34,1.42,4.45,3.18,6.63,4.83,1,.76,1.98,1.13,3.03.44"></path><path class="st0" d="M131.13,161.38c-.16-2.38-.49-4.63-.4-6.83.18-4.23.56-8.45,1.02-12.66.18-1.6,1.49-2.47,2.89-1.87,1,.42,2.38,1.65,2.38,2.49-.02,4.72-.38,9.41-.76,14.13-.11,1.42-.71,2.8-1.09,4.25,2.25.09,4.83.22,7.39.24,1.94,0,2.36.36,1.96,2.22-.11.51-.69,1.22-1.16,1.31-2.25.38-4.52.62-6.78.8-2.89.24-5.78.38-8.68.58-2.94.2-5.89.67-8.81.51-1.4-.07-3.27.07-4.27-1.58-.24-.4-.49-.78-.73-1.16.4-.24.8-.58,1.25-.71.62-.2,1.29-.27,2.02-.38-.16-2.2-.36-4.27-.42-6.34-.07-2.34,0-4.67-.07-7.01-.07-2.45-.27-4.87-.31-7.32,0-.56.24-1.36.65-1.6.8-.47,1.56-1.38,2.83-.53,1.36.93,1.89,2.09,1.85,3.63-.13,3.96-.24,7.9-.44,11.86-.09,1.78.4,3.6-.62,5.38-.47.82.02,1.6,1.25,1.49,2.94-.31,5.87-.58,9.1-.89"></path><path class="st0" d="M81.7,161.67c3.54-.33,6.96-.67,10.83-1.05-2.67-7.03-2.38-13.97-.27-20.89.18-.6.6-1.16.91-1.69,1.29.89,2.54,1.58,3.56,2.51.49.44.76,1.42.69,2.11-.13,1.58-.71,3.14-.78,4.72-.18,3.71-.13,7.45-.22,11.17-.02,1.49.53,2.27,2.16,2.22,1.45-.04,2.89,0,4.34.16.69.07,1.36.44,2.02.67-.56.73-.98,1.8-1.71,2.09-1.27.49-2.71.62-4.09.67-6.01.18-12.03-.38-17.97.96-1.67.38-2.36-1.13-3.63-1.47-.13-.04-.33-.4-.29-.56.96-3.09-.69-5.98-.67-8.96.02-3.49.49-6.96.78-10.45.07-.71.24-1.42.31-2.14.11-1.51,1.29-1.62,2.29-1.53,1.53.16,2.98,2.22,2.83,3.83-.18,1.78-.53,3.54-.62,5.32-.2,4.09-.31,8.19-.44,12.32"></path><path class="st0" d="M81.1,135.95c-.29.18-.65.4-1.02.67-.85-1.67.42-2.6,1.29-3.09,5.36-3.07,10.92-4.4,16.77-1.22,1.71.93,3.51,1.18,5.47,1.11.8,0,2.14,1.09,2.31,1.89.22,1.09-.96,1.56-2.11,1.49-3.2-.2-6.32-.67-9.12-2.34-1.67-1-3.4-.87-5.14-.18-1.4.56-2.76,1.22-4.18,1.69-1.11.38-2.31.56-3.49.73-.2.02-.49-.47-.76-.73"></path><path class="st0" d="M183.11,153.7c0,.49-.11,1.05-.04,1.6.38,3.67-1.67,6.81-2.31,10.23-.16.85-.82,1.56-1.98,1.33-1.25-.22-1.07-1.16-1-1.94.38-5.05.76-10.1,1.25-15.15.13-1.31.56-2.6,1.02-3.85.13-.36,1-.76,1.31-.62.69.29,1.65.85,1.74,1.42.27,1.71.18,3.47.2,5.21,0,.56-.11,1.11-.16,1.74"></path><path class="st0" d="M62.1,155.82c-.2-.02-.49-.07-.96-.13.04,1.87-.82,3.11-2.76,3.65-.09-.24-.27-.53-.27-.85-.16-5.78-.33-11.59,1.45-17.22.18-.6.8-1.58,1.11-1.56.87.09,1.67.29,2.31,1.4,1.05,1.82.73,3.36.36,5.21-.62,3.05-.82,6.16-1.22,9.48"></path><path class="st0" d="M64.39,110.53c-.33,2.31-.58,4.63-1.07,6.92-.18.87-.78,1.71-1.38,2.42-.6.69-1.94.2-2.18-.73-1.07-3.92-1.71-7.83-.71-11.88.16-.58.04-1.22.18-1.82.13-.53.31-1.4.67-1.49.62-.18,1.49-.11,2.07.2,2.62,1.4,2.65,3.83,2.45,6.38"></path><path class="st0" d="M114.06,135.35c.47-.49.82-1.16,1.4-1.47,4.23-2.31,8.52-4.54,13.52-4.16,2.4.18,4.83.71,7.16,1.33,1.45.38,2.58,2.78,2.09,4-.18.47-.62,1-1.07,1.16-.29.11-1.02-.33-1.16-.67-1.07-2.58-3.49-2.87-5.67-3.09-2.69-.29-5.38.07-7.99,1.18-2.51,1.07-5.23,1.69-7.87,2.51-.16-.27-.29-.51-.42-.78"></path><path class="st0" d="M171.05,140.53c.67,1.25,1.69,2.42,1.91,3.76.76,4.43,1.25,8.9,1.76,13.37.13,1.22.24,2.6-.87,3.51-.49.4-1.22.65-1.85.65-.31,0-.87-.71-.89-1.16-.29-2.98-.65-5.96-.67-8.94-.04-3.65.22-7.3.33-10.94.09-.09.18-.16.27-.24"></path><path class="st0" d="M90.2,59.52c1.49,1.11,2.58,1.78,3.51,2.65,1.53,1.42,1.45,3.38,1.4,5.27,0,.89-.24,1.76-.31,2.65-.24,3.05-.98,4.65-5.09,4.03.16-4.74.33-9.45.51-14.59"></path><path class="st0" d="M198.73,144.27c1.87,2.65,2.45,5.34,2.45,8.25,0,3.76.29,7.54.44,11.3.04.89-1.11,2.29-1.94,2.2-1.18-.11-2.07-.44-1.98-2.05.31-5.38.51-10.77.71-16.15.02-.67-.16-1.33-.09-2,.04-.53.27-1.05.4-1.56"></path><path class="st0" d="M118.16,117.42c-.89-4.38,1.02-16.91,3.14-18.66.33,1.11.85,2.07.82,3-.04,4.34-.18,8.68-.42,12.99-.09,1.8-1.82,2.96-3.56,2.67"></path><path class="st0" d="M192.39,165.74c-1.22-3.58-.93-19.31.4-21.87.24.38.49.62.6.93.27.73.56,1.47.65,2.22.44,4.18.98,8.39,1.2,12.59.09,1.58-.36,3.27-.89,4.8-.2.58-1.27.89-1.98,1.33"></path><path class="st0" d="M52.69,162c2.74-.85,5.47-1.74,8.25-2.47.47-.11,1.67.73,1.62.87-.24.89-.6,2.25-1.22,2.4-1.76.47-3.51,1.67-5.52.36-.78-.51-2-.33-3.05-.47-.02-.22-.07-.47-.09-.71"></path><path class="st0" d="M213.43,162.07c-.16-.56-.31-.87-.31-1.16.04-3.09.11-6.21.16-9.3,0-.67-.24-1.33-.18-1.98.04-.44.38-1.07.73-1.2.31-.11,1,.22,1.25.56,1.45,2.07,2.29,4.29,2.18,6.94-.09,2.11-.6,3.69-2.62,4.65-.44.22-.71.85-1.22,1.47"></path><path class="st0" d="M103.76,93.6c-.24,3.31-.44,5.94-.65,8.59-.11,1.49,0,3.05-.38,4.43-.31,1.07-1.09,2.2-2,2.83-1.62,1.11-2.42.53-2.6-1.4-.09-.87-.51-1.74-.53-2.6-.04-1.4.09-2.8.18-4.2,0-.11.16-.24.13-.29-1.29-1.6.62-2.85.51-4.38-.11-1.58.29-3.2.6-4.78.07-.38.62-.87,1.05-.98,2.11-.51,4,1.36,3.74,2.8"></path><path class="st0" d="M81.19,91.51c-.11.51-.18.89-.29,1.42.4-.18.73-.31,1.05-.47.4.42.82.85,1.2,1.29.78.91,1.11,1.85.98,3.18-.29,2.89-.13,5.85-.33,8.76-.07.91-.47,1.89-1,2.65-.56.82-1.42,1.45-2.16,2.18-2.51-4.76-2.25-17.26.53-19.02"></path><path class="st0" d="M89.08,110.55c-.53-4.34-1.07-8.41-1.51-12.48-.16-1.36-.09-2.76-.02-4.14,0-.29.36-.69.65-.8,1.4-.58,4.12,1.07,4.25,2.56.27,2.76.73,5.52.69,8.25-.04,2.45-.33,5.05-3.38,5.94-.22.07-.36.36-.67.67"></path><path class="st0" d="M102.65,86.32c-1.31.38-2.31.49-3.38-.42-4.14-3.47-8.61-3.18-13.26-1.02-2.58,1.2-5.25,2.18-8.3,3.45,1.78-2.38,3.89-3.67,6.1-4.69,4-1.89,8.23-3.49,12.7-2.38,2.02.51,3.8,2.09,5.61,3.34.38.27.36,1.09.53,1.74"></path><path class="st0" d="M101.52,113.24c-.42.2-.82.53-1.25.58-3.47.36-6.94.6-10.41.98-3.03.31-6.03.73-9.05,1.09-.24.02-.53-.04-.85-.09,1.69-2.42,17.11-4.58,21.31-3.09.09.18.16.36.24.53"></path><path class="st0" d="M154.39,174.81c-3.27.02-1.02-.07-4.49-.02.31.22.56.4.78.53-1.47,1.22-3.54.71-5.47.78-2.85.11-5.65.51-8.48.76-1.91.18-3.85.31-5.78.4-4.98.29-9.99.53-14.99.8-2.02.11-4.16-.07-6.03.31-4.23.87-8.61.89-12.99.89-5.96,0-11.92-.18-17.88-.27-4.32-.07-8.63-.2-12.95-.18-7.3.04-14.59.04-21.82.42-2.56.13-4.2-.78-6.23-1.33-.29-.09-.65-.56-.56-.69.18-.24.65-.47,1.07-.51,3.6-.42,7.18-.98,10.83-1.18,14.59-.82,29.16-1.78,43.82-2.25,17.06-.53,34.19-.69,51.38.09,5.09.22,3.18.24,8.27.6,0,.07,1.16.71,1.16.78"></path></svg> 